<svg xmlns="http://www.w3.org/2000/svg" viewBox="0 0 1600 1000" preserveAspectRatio="xMidYMid slice">
  <defs>
    <linearGradient id="bg" x1="0" y1="0" x2="1" y2="1">
      <stop offset="0" stop-color="#172033"/>
      <stop offset="0.45" stop-color="#10261f"/>
      <stop offset="1" stop-color="#241827"/>
    </linearGradient>
    <radialGradient id="glow" cx="50%" cy="42%" r="65%">
      <stop offset="0" stop-color="#f8d36a" stop-opacity="0.20"/>
      <stop offset="0.45" stop-color="#2dd4bf" stop-opacity="0.10"/>
      <stop offset="1" stop-color="#000000" stop-opacity="0"/>
    </radialGradient>
    <filter id="soft" x="-20%" y="-20%" width="140%" height="140%">
      <feGaussianBlur stdDeviation="1.2"/>
    </filter>
    <pattern id="dots" width="42" height="42" patternUnits="userSpaceOnUse">
      <circle cx="3" cy="3" r="1.4" fill="#ffffff" opacity="0.10"/>
    </pattern>
  </defs>

  <rect width="1600" height="1000" fill="url(#bg)"/>
  <rect width="1600" height="1000" fill="url(#glow)"/>
  <rect width="1600" height="1000" fill="url(#dots)"/>

  <g opacity="0.18" filter="url(#soft)">
    <path d="M130 150 C320 40 390 270 610 130 S930 70 1130 210 1370 150 1510 70" fill="none" stroke="#f59e0b" stroke-width="18" stroke-linecap="round"/>
    <path d="M-40 825 C160 710 330 930 515 765 S875 690 1080 810 1345 760 1645 620" fill="none" stroke="#38bdf8" stroke-width="14" stroke-linecap="round"/>
  </g>

  <g opacity="0.30">
    <rect x="156" y="208" width="150" height="150" rx="24" fill="#f8fafc" transform="rotate(-12 231 283)"/>
    <circle cx="202" cy="254" r="10" fill="#0f172a"/>
    <circle cx="260" cy="254" r="10" fill="#0f172a"/>
    <circle cx="202" cy="312" r="10" fill="#0f172a"/>
    <circle cx="260" cy="312" r="10" fill="#0f172a"/>

    <rect x="1190" y="195" width="115" height="115" rx="18" fill="#f59e0b" transform="rotate(18 1247 252)"/>
    <circle cx="1247" cy="252" r="37" fill="none" stroke="#111827" stroke-width="9" opacity="0.72"/>
    <path d="M1222 252h50M1247 227v50" stroke="#111827" stroke-width="9" stroke-linecap="round" opacity="0.72"/>

    <polygon points="1400,645 1452,735 1348,735" fill="#22c55e" transform="rotate(-8 1400 705)"/>
    <circle cx="1400" cy="705" r="18" fill="#ecfeff" opacity="0.8"/>

    <circle cx="337" cy="710" r="56" fill="#ef4444"/>
    <circle cx="337" cy="710" r="32" fill="#fee2e2" opacity="0.70"/>
    <circle cx="443" cy="755" r="42" fill="#3b82f6"/>
    <circle cx="443" cy="755" r="23" fill="#dbeafe" opacity="0.68"/>

    <g transform="translate(780 175) rotate(9)">
      <rect x="0" y="0" width="96" height="138" rx="14" fill="#e5e7eb"/>
      <circle cx="48" cy="42" r="18" fill="#14b8a6"/>
      <path d="M26 86h44M26 108h34" stroke="#0f172a" stroke-width="9" stroke-linecap="round" opacity="0.60"/>
    </g>

    <g transform="translate(930 715) rotate(-16)">
      <rect x="0" y="0" width="82" height="120" rx="13" fill="#fef3c7"/>
      <path d="M20 30h42M20 60h42M20 90h42" stroke="#78350f" stroke-width="8" stroke-linecap="round" opacity="0.55"/>
    </g>
  </g>

  <g opacity="0.16">
    <circle cx="1130" cy="525" r="112" fill="none" stroke="#ffffff" stroke-width="3"/>
    <circle cx="1130" cy="525" r="72" fill="none" stroke="#ffffff" stroke-width="3"/>
    <circle cx="1130" cy="525" r="22" fill="#ffffff"/>
    <path d="M1018 525h224M1130 413v224" stroke="#ffffff" stroke-width="3"/>
  </g>
</svg>
